<svg id="レイヤー_1" data-name="レイヤー 1" xmlns="http://www.w3.org/2000/svg" viewBox="0 0 500 300"><defs><style>.cls-1{fill:#e41935;}</style></defs><path class="cls-1" d="M286.49,118.24a3.79,3.79,0,0,0,.15-5.36c-1.43-1.52-3.36-1.54-5.57-.51A150.8,150.8,0,0,0,262,128.9c-3.82,3.77-8.37,4.95-11.39,4.45-8.24-1.37-9-6.49-13.41-15.84-4-8.36-5.91-11.88-7.82-13.69a4.08,4.08,0,0,0-5.34-.74,4.63,4.63,0,0,0-1.15,6.26c5.12,9.6,10,25.44,10.14,31.81.29,10.21-7.45,15.59-9.2,30.37-1.37,11.52-.53,19.48,3.21,36,1.21,3.7,2.73,5,5.46,5.08s4.34-2.07,4.42-4.8c0,0-3.41-22,.77-33.66,2,6.82,8.5,17.73,9.79,19.8,3.1,5,13,15.26,13,15.26a4.94,4.94,0,1,0,7.24-6.72s-7-10.93-8.34-13.16c-1.72-2.79-4.78-14.65-5.28-22.66-.33-5.28,4.12-17,9.79-22.88C265.41,141.44,278,127,286.49,118.24Z"/><path class="cls-1" d="M242.38,119.35a9.75,9.75,0,1,0,9.75-9.74A9.75,9.75,0,0,0,242.38,119.35Z"/><path class="cls-1" d="M236.82,92.92a7.35,7.35,0,0,1,5.71,5.72,7.36,7.36,0,0,1,5.72-5.72,7.36,7.36,0,0,1-5.72-5.72A7.35,7.35,0,0,1,236.82,92.92Z"/><path class="cls-1" d="M209.49,155.34a5.53,5.53,0,0,1,4.29,4.29,5.5,5.5,0,0,1,4.28-4.29,5.52,5.52,0,0,1-4.28-4.29A5.54,5.54,0,0,1,209.49,155.34Z"/><path class="cls-1" d="M281.52,145.72a5.89,5.89,0,0,1,4.57,4.57,5.91,5.91,0,0,1,4.58-4.57,5.91,5.91,0,0,1-4.58-4.57A5.89,5.89,0,0,1,281.52,145.72Z"/><path class="cls-1" d="M268.8,181.78a4.82,4.82,0,0,1,3.72,3.72,4.79,4.79,0,0,1,3.71-3.72,4.77,4.77,0,0,1-3.71-3.71A4.8,4.8,0,0,1,268.8,181.78Z"/><path class="cls-1" d="M206.46,136a3,3,0,0,0,.13-4.29c-1.15-1.22-2.7-1.23-4.46-.4a120.54,120.54,0,0,0-15.3,13.22c-3.06,3-6.69,4-9.11,3.56-6.59-1.1-7.18-5.19-10.73-12.68-3.16-6.68-4.72-9.5-6.26-10.94a3.23,3.23,0,0,0-4.26-.59,3.68,3.68,0,0,0-.92,5c4.09,7.68,8,20.35,8.11,25.45.22,8.17-6,12.47-7.37,24.3-1.09,9.21-.42,15.58,2.57,28.81,1,3,2.19,4,4.37,4.06s3.47-1.65,3.54-3.83c0,0-2.73-17.6.61-26.93,1.59,5.45,6.8,14.18,7.84,15.84,2.48,4,10.38,12.21,10.38,12.21a4,4,0,0,0,5.8-5.38s-5.59-8.75-6.68-10.53c-1.37-2.23-3.82-11.72-4.23-18.13-.26-4.22,3.3-13.59,7.84-18.3C189.6,154.58,199.65,143,206.46,136Z"/><path class="cls-1" d="M171.18,136.91a7.8,7.8,0,1,0,7.79-7.79A7.79,7.79,0,0,0,171.18,136.91Z"/><path class="cls-1" d="M166.73,115.76a5.9,5.9,0,0,1,4.57,4.58,5.89,5.89,0,0,1,4.57-4.58,5.88,5.88,0,0,1-4.57-4.57A5.89,5.89,0,0,1,166.73,115.76Z"/><path class="cls-1" d="M144.86,165.7a4.42,4.42,0,0,1,3.43,3.43,4.42,4.42,0,0,1,3.43-3.43,4.42,4.42,0,0,1-3.43-3.43A4.42,4.42,0,0,1,144.86,165.7Z"/><path class="cls-1" d="M202.49,158a4.74,4.74,0,0,1,3.66,3.66,4.73,4.73,0,0,1,3.66-3.66,4.71,4.71,0,0,1-3.66-3.65A4.72,4.72,0,0,1,202.49,158Z"/><path class="cls-1" d="M192.31,186.86a3.81,3.81,0,0,1,3,3,3.83,3.83,0,0,1,3-3,3.84,3.84,0,0,1-3-3A3.82,3.82,0,0,1,192.31,186.86Z"/><path class="cls-1" d="M142.64,152.09a2.43,2.43,0,0,0,.1-3.43c-.92-1-2.16-1-3.57-.33a97.59,97.59,0,0,0-12.24,10.58,8.94,8.94,0,0,1-7.28,2.85c-5.28-.88-5.75-4.16-8.59-10.14-2.53-5.35-3.78-7.6-5-8.76a2.58,2.58,0,0,0-3.41-.47,2.94,2.94,0,0,0-.74,4c3.28,6.15,6.38,16.29,6.49,20.36.18,6.54-4.77,10-5.89,19.44-.87,7.37-.33,12.47,2.06,23.05.77,2.37,1.75,3.2,3.49,3.25s2.78-1.32,2.83-3.07c0,0-2.18-14.08.49-21.54,1.27,4.36,5.44,11.34,6.27,12.67,2,3.2,8.31,9.77,8.31,9.77a3.16,3.16,0,1,0,4.63-4.31s-4.46-7-5.34-8.42c-1.1-1.78-3.06-9.37-3.38-14.5-.21-3.38,2.64-10.88,6.27-14.64C129.15,166.93,137.19,157.69,142.64,152.09Z"/><path class="cls-1" d="M114.41,152.8a6.24,6.24,0,1,0,6.23-6.23A6.24,6.24,0,0,0,114.41,152.8Z"/><path class="cls-1" d="M110.85,135.88a4.73,4.73,0,0,1,3.66,3.66,4.7,4.7,0,0,1,3.65-3.66,4.69,4.69,0,0,1-3.65-3.65A4.72,4.72,0,0,1,110.85,135.88Z"/><path class="cls-1" d="M93.36,175.83a3.54,3.54,0,0,1,2.74,2.75,3.54,3.54,0,0,1,2.74-2.75,3.53,3.53,0,0,1-2.74-2.74A3.53,3.53,0,0,1,93.36,175.83Z"/><path class="cls-1" d="M139.46,169.68a3.76,3.76,0,0,1,2.92,2.92,3.78,3.78,0,0,1,2.93-2.92,3.79,3.79,0,0,1-2.93-2.93A3.77,3.77,0,0,1,139.46,169.68Z"/><path class="cls-1" d="M131.32,192.76a3.06,3.06,0,0,1,2.37,2.38,3.08,3.08,0,0,1,2.38-2.38,3.08,3.08,0,0,1-2.38-2.38A3.06,3.06,0,0,1,131.32,192.76Z"/></svg>