<svg id="レイヤー_1" data-name="レイヤー 1" xmlns="http://www.w3.org/2000/svg" viewBox="0 0 500 300"><defs><style>.cls-1{fill:#e41935;}</style></defs><path class="cls-1" d="M286.49,118.24a3.79,3.79,0,0,0,.15-5.36c-1.43-1.52-3.36-1.54-5.57-.51A150.8,150.8,0,0,0,262,128.9c-3.82,3.77-8.37,4.95-11.39,4.45-8.24-1.37-9-6.49-13.41-15.84-4-8.36-5.91-11.88-7.82-13.69a4.08,4.08,0,0,0-5.34-.74,4.63,4.63,0,0,0-1.15,6.26c5.12,9.6,10,25.44,10.14,31.81.29,10.21-7.45,15.59-9.2,30.37-1.37,11.52-.53,19.48,3.21,36,1.21,3.7,2.73,5,5.46,5.08s4.34-2.07,4.42-4.8c0,0-3.41-22,.77-33.66,2,6.82,8.5,17.73,9.79,19.8,3.1,5,13,15.26,13,15.26a4.94,4.94,0,1,0,7.24-6.72s-7-10.93-8.34-13.16c-1.72-2.79-4.78-14.65-5.28-22.66-.33-5.28,4.12-17,9.79-22.88C265.41,141.44,278,127,286.49,118.24Z"/><path class="cls-1" d="M242.38,119.35a9.75,9.75,0,1,0,9.75-9.74A9.75,9.75,0,0,0,242.38,119.35Z"/><path class="cls-1" d="M236.82,92.92a7.35,7.35,0,0,1,5.71,5.72,7.36,7.36,0,0,1,5.72-5.72,7.36,7.36,0,0,1-5.72-5.72A7.35,7.35,0,0,1,236.82,92.92Z"/><path class="cls-1" d="M209.49,155.34a5.53,5.53,0,0,1,4.29,4.29,5.5,5.5,0,0,1,4.28-4.29,5.52,5.52,0,0,1-4.28-4.29A5.54,5.54,0,0,1,209.49,155.34Z"/><path class="cls-1" d="M281.52,145.72a5.89,5.89,0,0,1,4.57,4.57,5.91,5.91,0,0,1,4.58-4.57,5.91,5.91,0,0,1-4.58-4.57A5.89,5.89,0,0,1,281.52,145.72Z"/><path class="cls-1" d="M268.8,181.78a4.82,4.82,0,0,1,3.72,3.72,4.79,4.79,0,0,1,3.71-3.72,4.77,4.77,0,0,1-3.71-3.71A4.8,4.8,0,0,1,268.8,181.78Z"/></svg>
