<svg id="レイヤー_1" data-name="レイヤー 1" xmlns="http://www.w3.org/2000/svg" viewBox="0 0 500 300"><path d="M265.87,116.13a9.74,9.74,0,1,1-9.2-10.26A9.74,9.74,0,0,1,265.87,116.13Z"/><path d="M255.75,217.32l-.27-46.08c.08-10,.53-18.38.74-21.13.34-.76.89-1.56,2.42-.55.49.32,6.88,5.05,9.93,5.17a4.65,4.65,0,0,0,4.69-4.61l-.71-19.55a3.79,3.79,0,1,0-7.58-.06l-.48,10.55-4.76-3.77c-4.28-3.93-16-11.58-16.69-21.86L242.6,81.2A3.79,3.79,0,1,0,235,81l-1.48,19.5-.79,23.17c-.16,3.76-1,15.79-1.61,23.38-.39,4.68-1.86,13.27-3,22.56l-1.19,19a5.56,5.56,0,0,0-.05.92L228.6,215a4.94,4.94,0,1,0,9.88-.23L239,190h0L242.45,172l.92,20.21v.05c0,.07,0,.14,0,.21l0,.33v.05l2.47,25a4.94,4.94,0,0,0,9.87-.54Z"/></svg>